<svg xmlns="http://www.w3.org/2000/svg" viewBox="0 0 16 16" height="16" width="16" stroke="none">
  <path d="M7.2087 0.48808999999999997c0.43745500000000004 -0.43745000000000006 1.147875 -0.43745000000000006 1.585325 0l4.479500000000001 4.479500000000001c0.32196500000000006 0.32196500000000006 0.416455 0.80141 0.24147500000000002 1.22136s-0.5809350000000001 0.692925 -1.0358850000000002 0.692925h-8.959000000000001c-0.45145 0 -0.860905 -0.27297 -1.0358850000000002 -0.692925s-0.07699500000000001 -0.8993950000000001 0.24147 -1.22136l4.479500000000001 -4.479500000000001Zm0 15.02382 -4.479500000000001 -4.479500000000001c-0.32196 -0.32196 -0.41645000000000004 -0.80141 -0.24147 -1.22136s0.5809350000000001 -0.692925 1.0358850000000002 -0.692925h8.9555c0.45145 0 0.8609 0.27297 1.0358850000000002 0.692925s0.07699 0.8993950000000001 -0.24147500000000002 1.22136l-4.479500000000001 4.479500000000001c-0.43745000000000006 0.43745000000000006 -1.14787 0.43745000000000006 -1.585325 0Z" fill="currentColor" stroke="none"></path>
</svg>